<mxfile host="app.diagrams.net" modified="2022-09-17T22:35:21.708Z" agent="5.0 (Windows NT 10.0; Win64; x64) AppleWebKit/537.36 (KHTML, like Gecko) Chrome/105.0.0.0 Safari/537.36" etag="jfuPSJLYI73mLlT4GauR" version="20.3.2" type="github" pages="4">
  <diagram name="Page-1" id="03018318-947c-dd8e-b7a3-06fadd420f32">
    <mxGraphModel dx="3413" dy="7055" grid="1" gridSize="10" guides="1" tooltips="1" connect="1" arrows="1" fold="1" page="1" pageScale="1" pageWidth="1100" pageHeight="850" background="none" math="0" shadow="0">
      <root>
        <mxCell id="0" />
        <mxCell id="1" parent="0" />
        <UserObject label="" link="data:page/id,vDG1DN7ziY-1pXosUpdX" id="S8hFGwZDNo5Cqv53PUU1-4">
          <mxCell style="strokeWidth=1;shadow=0;dashed=0;align=center;html=1;shape=mxgraph.mockup.containers.browserWindow;rSize=0;strokeColor=#666666;strokeColor2=#008cff;strokeColor3=#c4c4c4;mainText=,;recursiveResize=0;fillColor=none;" vertex="1" parent="1">
            <mxGeometry x="-1060" y="-5940" width="1035" height="830" as="geometry" />
          </mxCell>
        </UserObject>
        <mxCell id="S8hFGwZDNo5Cqv53PUU1-5" value="Page 1" style="strokeWidth=1;shadow=0;dashed=0;align=center;html=1;shape=mxgraph.mockup.containers.anchor;fontSize=17;fontColor=#666666;align=left;" vertex="1" parent="S8hFGwZDNo5Cqv53PUU1-4">
          <mxGeometry x="60" y="12" width="110" height="26" as="geometry" />
        </mxCell>
        <mxCell id="S8hFGwZDNo5Cqv53PUU1-6" value="https://lucio-ribeiro.github.io/trabalhoportifolio/index.html" style="strokeWidth=1;shadow=0;dashed=0;align=center;html=1;shape=mxgraph.mockup.containers.anchor;rSize=0;fontSize=17;fontColor=#666666;align=left;" vertex="1" parent="S8hFGwZDNo5Cqv53PUU1-4">
          <mxGeometry x="130" y="60" width="250" height="26" as="geometry" />
        </mxCell>
        <mxCell id="677b7b8949515195-10" value="" style="whiteSpace=wrap;html=1;rounded=0;shadow=0;labelBackgroundColor=none;strokeWidth=1;fillColor=none;fontFamily=Verdana;fontSize=12;align=center;comic=1;" parent="S8hFGwZDNo5Cqv53PUU1-4" vertex="1">
          <mxGeometry y="110" width="1030" height="50" as="geometry" />
        </mxCell>
        <mxCell id="677b7b8949515195-14" value="&lt;span style=&quot;color: rgba(0, 0, 0, 0); font-family: monospace; font-size: 0px;&quot;&gt;%3CmxGraphModel%3E%3Croot%3E%3CmxCell%20id%3D%220%22%2F%3E%3CmxCell%20id%3D%221%22%20parent%3D%220%22%2F%3E%3CmxCell%20id%3D%222%22%20value%3D%22%26lt%3Bspan%20style%3D%26quot%3Bcolor%3A%20rgb(0%2C%200%2C%200)%3B%20font-family%3A%20Verdana%3B%20font-size%3A%2014px%3B%20text-align%3A%20left%3B%26quot%3B%26gt%3BSobre%20mim%26lt%3B%2Fspan%26gt%3B%22%20style%3D%22shape%3Drectangle%3BstrokeColor%3Dnone%3BfillColor%3Dnone%3BlinkText%3D%3BfontSize%3D17%3BfontColor%3D%230000ff%3BfontStyle%3D4%3Bhtml%3D1%3Balign%3Dcenter%3B%22%20vertex%3D%221%22%20parent%3D%221%22%3E%3CmxGeometry%20x%3D%22-140%22%20y%3D%22-2160%22%20width%3D%22150%22%20height%3D%2230%22%20as%3D%22geometry%22%2F%3E%3C%2FmxCell%3E%3C%2Froot%3E%3C%2FmxGraphModel%3E&lt;/span&gt;" style="text;html=1;points=[];align=left;verticalAlign=top;spacingTop=-4;fontSize=14;fontFamily=Verdana" parent="S8hFGwZDNo5Cqv53PUU1-4" vertex="1">
          <mxGeometry x="620" y="125" width="60" height="20" as="geometry" />
        </mxCell>
        <mxCell id="S8hFGwZDNo5Cqv53PUU1-3" value="" style="verticalLabelPosition=bottom;shadow=0;dashed=0;align=center;html=1;verticalAlign=top;strokeWidth=1;shape=mxgraph.mockup.containers.userMale;strokeColor=#666666;strokeColor2=#008cff;" vertex="1" parent="S8hFGwZDNo5Cqv53PUU1-4">
          <mxGeometry x="340" y="260" width="290" height="310" as="geometry" />
        </mxCell>
        <mxCell id="S8hFGwZDNo5Cqv53PUU1-8" value="&lt;h1&gt;Lúcio Ribeiro&lt;/h1&gt;" style="text;strokeColor=none;fillColor=none;html=1;fontSize=24;fontStyle=1;verticalAlign=middle;align=center;" vertex="1" parent="S8hFGwZDNo5Cqv53PUU1-4">
          <mxGeometry x="317.5" y="620" width="335" height="60" as="geometry" />
        </mxCell>
        <mxCell id="S8hFGwZDNo5Cqv53PUU1-9" value="&lt;pre&gt;&lt;font style=&quot;font-size: 32px;&quot;&gt;Programador&lt;/font&gt;&lt;/pre&gt;" style="text;html=1;strokeColor=none;fillColor=none;align=center;verticalAlign=middle;whiteSpace=wrap;rounded=0;" vertex="1" parent="S8hFGwZDNo5Cqv53PUU1-4">
          <mxGeometry x="385" y="700" width="200" height="30" as="geometry" />
        </mxCell>
        <UserObject label="&lt;span style=&quot;color: rgb(0, 0, 0); font-family: Verdana; font-size: 14px; text-align: left;&quot;&gt;Sobre mim&lt;/span&gt;" link="data:page/id,DdBcuhUYu7kXRmseQXpt" id="7EB2B69G2ShroAOCBWgQ-2">
          <mxCell style="shape=rectangle;strokeColor=none;fillColor=none;linkText=;fontSize=17;fontColor=#0000ff;fontStyle=4;html=1;align=center;" vertex="1" parent="S8hFGwZDNo5Cqv53PUU1-4">
            <mxGeometry x="360" y="120" width="150" height="30" as="geometry" />
          </mxCell>
        </UserObject>
        <mxCell id="7EB2B69G2ShroAOCBWgQ-4" value="&lt;span style=&quot;color: rgb(0, 0, 0); font-family: Verdana; font-size: 14px; text-align: left;&quot;&gt;Curriculo&lt;/span&gt;" style="shape=rectangle;strokeColor=none;fillColor=none;linkText=;fontSize=17;fontColor=#0000ff;fontStyle=4;html=1;align=center;" vertex="1" parent="S8hFGwZDNo5Cqv53PUU1-4">
          <mxGeometry x="480" y="120" width="150" height="30" as="geometry" />
        </mxCell>
        <UserObject label="&lt;span style=&quot;color: rgb(0, 0, 0); font-family: Verdana; font-size: 14px; text-align: left;&quot;&gt;Contato&lt;/span&gt;" link="data:page/id,k62JO7_QU_EYKZ-MTciL" id="7EB2B69G2ShroAOCBWgQ-5">
          <mxCell style="shape=rectangle;strokeColor=none;fillColor=none;linkText=;fontSize=17;fontColor=#0000ff;fontStyle=4;html=1;align=center;" vertex="1" parent="S8hFGwZDNo5Cqv53PUU1-4">
            <mxGeometry x="585" y="120" width="150" height="30" as="geometry" />
          </mxCell>
        </UserObject>
        <UserObject label="&lt;span style=&quot;color: rgb(0, 0, 0); font-family: Verdana; font-size: 14px; text-align: left;&quot;&gt;Home&lt;/span&gt;" link="data:page/id,03018318-947c-dd8e-b7a3-06fadd420f32" id="7EB2B69G2ShroAOCBWgQ-6">
          <mxCell style="shape=rectangle;strokeColor=none;fillColor=none;linkText=;fontSize=17;fontColor=#0000ff;fontStyle=4;html=1;align=center;" vertex="1" parent="S8hFGwZDNo5Cqv53PUU1-4">
            <mxGeometry x="235" y="120" width="150" height="30" as="geometry" />
          </mxCell>
        </UserObject>
      </root>
    </mxGraphModel>
  </diagram>
  <diagram id="DdBcuhUYu7kXRmseQXpt" name="Página-2">
    <mxGraphModel dx="1486" dy="2274" grid="1" gridSize="10" guides="1" tooltips="1" connect="1" arrows="1" fold="1" page="1" pageScale="1" pageWidth="827" pageHeight="1169" math="0" shadow="0">
      <root>
        <mxCell id="0" />
        <mxCell id="1" parent="0" />
        <UserObject label="" id="_t_DlHZ-EZshG_ay1zpO-1">
          <mxCell style="strokeWidth=1;shadow=0;dashed=0;align=center;html=1;shape=mxgraph.mockup.containers.browserWindow;rSize=0;strokeColor=#666666;strokeColor2=#008cff;strokeColor3=#c4c4c4;mainText=,;recursiveResize=0;fillColor=none;" vertex="1" parent="1">
            <mxGeometry x="851" y="-1080" width="780" height="990" as="geometry" />
          </mxCell>
        </UserObject>
        <mxCell id="_t_DlHZ-EZshG_ay1zpO-2" value="Page 1" style="strokeWidth=1;shadow=0;dashed=0;align=center;html=1;shape=mxgraph.mockup.containers.anchor;fontSize=17;fontColor=#666666;align=left;" vertex="1" parent="_t_DlHZ-EZshG_ay1zpO-1">
          <mxGeometry x="60" y="12" width="110" height="26" as="geometry" />
        </mxCell>
        <mxCell id="_t_DlHZ-EZshG_ay1zpO-3" value="https://lucio-ribeiro.github.io/trabalhoportifolio/src/sobremim.html" style="strokeWidth=1;shadow=0;dashed=0;align=center;html=1;shape=mxgraph.mockup.containers.anchor;rSize=0;fontSize=17;fontColor=#666666;align=left;" vertex="1" parent="_t_DlHZ-EZshG_ay1zpO-1">
          <mxGeometry x="130" y="60" width="250" height="26" as="geometry" />
        </mxCell>
        <mxCell id="_t_DlHZ-EZshG_ay1zpO-4" value="" style="whiteSpace=wrap;html=1;rounded=0;shadow=0;labelBackgroundColor=none;strokeWidth=1;fillColor=none;fontFamily=Verdana;fontSize=12;align=center;comic=1;" vertex="1" parent="_t_DlHZ-EZshG_ay1zpO-1">
          <mxGeometry y="110" width="770" height="50" as="geometry" />
        </mxCell>
        <mxCell id="_t_DlHZ-EZshG_ay1zpO-5" value="&lt;span style=&quot;color: rgba(0, 0, 0, 0); font-family: monospace; font-size: 0px;&quot;&gt;%3CmxGraphModel%3E%3Croot%3E%3CmxCell%20id%3D%220%22%2F%3E%3CmxCell%20id%3D%221%22%20parent%3D%220%22%2F%3E%3CmxCell%20id%3D%222%22%20value%3D%22%26lt%3Bspan%20style%3D%26quot%3Bcolor%3A%20rgb(0%2C%200%2C%200)%3B%20font-family%3A%20Verdana%3B%20font-size%3A%2014px%3B%20text-align%3A%20left%3B%26quot%3B%26gt%3BSobre%20mim%26lt%3B%2Fspan%26gt%3B%22%20style%3D%22shape%3Drectangle%3BstrokeColor%3Dnone%3BfillColor%3Dnone%3BlinkText%3D%3BfontSize%3D17%3BfontColor%3D%230000ff%3BfontStyle%3D4%3Bhtml%3D1%3Balign%3Dcenter%3B%22%20vertex%3D%221%22%20parent%3D%221%22%3E%3CmxGeometry%20x%3D%22-140%22%20y%3D%22-2160%22%20width%3D%22150%22%20height%3D%2230%22%20as%3D%22geometry%22%2F%3E%3C%2FmxCell%3E%3C%2Froot%3E%3C%2FmxGraphModel%3E&lt;/span&gt;" style="text;html=1;points=[];align=left;verticalAlign=top;spacingTop=-4;fontSize=14;fontFamily=Verdana" vertex="1" parent="_t_DlHZ-EZshG_ay1zpO-1">
          <mxGeometry x="620" y="125" width="60" height="20" as="geometry" />
        </mxCell>
        <UserObject label="&lt;span style=&quot;color: rgb(0, 0, 0); font-family: Verdana; font-size: 14px; text-align: left;&quot;&gt;Sobre mim&lt;/span&gt;" link="data:page/id,DdBcuhUYu7kXRmseQXpt" id="_t_DlHZ-EZshG_ay1zpO-9">
          <mxCell style="shape=rectangle;strokeColor=none;fillColor=none;linkText=;fontSize=17;fontColor=#0000ff;fontStyle=4;html=1;align=center;" vertex="1" parent="_t_DlHZ-EZshG_ay1zpO-1">
            <mxGeometry x="260" y="120" width="150" height="30" as="geometry" />
          </mxCell>
        </UserObject>
        <UserObject label="&lt;span style=&quot;color: rgb(0, 0, 0); font-family: Verdana; font-size: 14px; text-align: left;&quot;&gt;Curriculo&lt;/span&gt;" link="data:page/id,vDG1DN7ziY-1pXosUpdX" id="_t_DlHZ-EZshG_ay1zpO-10">
          <mxCell style="shape=rectangle;strokeColor=none;fillColor=none;linkText=;fontSize=17;fontColor=#0000ff;fontStyle=4;html=1;align=center;" vertex="1" parent="_t_DlHZ-EZshG_ay1zpO-1">
            <mxGeometry x="375" y="120" width="160" height="30" as="geometry" />
          </mxCell>
        </UserObject>
        <UserObject label="&lt;span style=&quot;color: rgb(0, 0, 0); font-family: Verdana; font-size: 14px; text-align: left;&quot;&gt;Contato&lt;/span&gt;" link="data:page/id,k62JO7_QU_EYKZ-MTciL" id="_t_DlHZ-EZshG_ay1zpO-11">
          <mxCell style="shape=rectangle;strokeColor=none;fillColor=none;linkText=;fontSize=17;fontColor=#0000ff;fontStyle=4;html=1;align=center;" vertex="1" parent="_t_DlHZ-EZshG_ay1zpO-1">
            <mxGeometry x="485" y="120" width="150" height="30" as="geometry" />
          </mxCell>
        </UserObject>
        <UserObject label="&lt;span style=&quot;color: rgb(0, 0, 0); font-family: Verdana; font-size: 14px; text-align: left;&quot;&gt;Home&lt;/span&gt;" link="data:page/id,03018318-947c-dd8e-b7a3-06fadd420f32" id="_t_DlHZ-EZshG_ay1zpO-12">
          <mxCell style="shape=rectangle;strokeColor=none;fillColor=none;linkText=;fontSize=17;fontColor=#0000ff;fontStyle=4;html=1;align=center;" vertex="1" parent="_t_DlHZ-EZshG_ay1zpO-1">
            <mxGeometry x="135" y="120" width="150" height="30" as="geometry" />
          </mxCell>
        </UserObject>
        <mxCell id="RiaocOG0eb6Tob_SvayO-2" value="&lt;h1&gt;Olá !&lt;/h1&gt;" style="text;html=1;strokeColor=none;fillColor=none;spacing=5;spacingTop=-20;whiteSpace=wrap;overflow=hidden;rounded=0;fontSize=32;" vertex="1" parent="_t_DlHZ-EZshG_ay1zpO-1">
          <mxGeometry x="80" y="170" width="280" height="140" as="geometry" />
        </mxCell>
        <mxCell id="RiaocOG0eb6Tob_SvayO-4" value="" style="verticalLabelPosition=bottom;shadow=0;dashed=0;align=center;html=1;verticalAlign=top;strokeWidth=1;shape=mxgraph.mockup.containers.videoPlayer;strokeColor=#666666;strokeColor2=#008cff;strokeColor3=#c4c4c4;textColor=#666666;fillColor2=#008cff;barHeight=30;barPos=20;fontFamily=Helvetica;fontSize=18;fillColor=none;" vertex="1" parent="_t_DlHZ-EZshG_ay1zpO-1">
          <mxGeometry x="176.5" y="620" width="417" height="197" as="geometry" />
        </mxCell>
        <mxCell id="RiaocOG0eb6Tob_SvayO-3" value="&lt;p style=&quot;margin: 0px 0px 15px; padding: 0px; text-align: justify; background-color: rgb(255, 255, 255);&quot;&gt;&lt;font style=&quot;font-size: 14px;&quot;&gt;Lorem ipsum dolor sit amet, consectetur adipiscing elit. Donec in nulla placerat, placerat dui eu, pretium enim. Maecenas fermentum, urna et lacinia dictum, metus odio bibendum sem, ut cursus est turpis et urna. Maecenas molestie, velit fringilla ornare condimentum, metus tortor commodo. Nulla dui odio, malesuada vitae justo ut, posuere fringilla dui.&lt;/font&gt;&lt;/p&gt;&lt;p style=&quot;margin: 0px 0px 15px; padding: 0px; text-align: justify; background-color: rgb(255, 255, 255);&quot;&gt;&lt;font size=&quot;3&quot; style=&quot;&quot;&gt;Lorem ipsum dolor sit amet, consectetur adipiscing elit. Donec in nulla placerat, placerat dui eu, pretium enim. Maecenas fermentum, urna et lacinia dictum, metus odio bibendum sem, ut cursus est turpis et urna. Maecenas molestie, velit fringilla ornare condimentum, metus tortor commodo. Nulla dui odio, malesuada vitae justo ut, posuere fringilla dui&lt;/font&gt;&lt;br&gt;&lt;/p&gt;" style="text;html=1;strokeColor=none;fillColor=none;align=center;verticalAlign=middle;whiteSpace=wrap;rounded=0;fontSize=31;" vertex="1" parent="_t_DlHZ-EZshG_ay1zpO-1">
          <mxGeometry x="80" y="270" width="650" height="340" as="geometry" />
        </mxCell>
      </root>
    </mxGraphModel>
  </diagram>
  <diagram id="vDG1DN7ziY-1pXosUpdX" name="Página-3">
    <mxGraphModel dx="3910" dy="3811" grid="1" gridSize="10" guides="1" tooltips="1" connect="1" arrows="1" fold="1" page="1" pageScale="1" pageWidth="827" pageHeight="1169" math="0" shadow="0">
      <root>
        <mxCell id="0" />
        <mxCell id="1" parent="0" />
        <UserObject label="" id="taAovDgYZtb6aDD5GkYz-1">
          <mxCell style="strokeWidth=1;shadow=0;dashed=0;align=center;html=1;shape=mxgraph.mockup.containers.browserWindow;rSize=0;strokeColor=#666666;strokeColor2=#008cff;strokeColor3=#c4c4c4;mainText=,;recursiveResize=0;fillColor=none;" vertex="1" parent="1">
            <mxGeometry x="-810" y="-2320" width="800" height="1100" as="geometry" />
          </mxCell>
        </UserObject>
        <mxCell id="taAovDgYZtb6aDD5GkYz-2" value="Page 1" style="strokeWidth=1;shadow=0;dashed=0;align=center;html=1;shape=mxgraph.mockup.containers.anchor;fontSize=17;fontColor=#666666;align=left;" vertex="1" parent="taAovDgYZtb6aDD5GkYz-1">
          <mxGeometry x="60" y="12" width="110" height="26" as="geometry" />
        </mxCell>
        <mxCell id="taAovDgYZtb6aDD5GkYz-3" value="https://lucio-ribeiro.github.io/trabalhoportifolio/src/curriculo.html" style="strokeWidth=1;shadow=0;dashed=0;align=center;html=1;shape=mxgraph.mockup.containers.anchor;rSize=0;fontSize=17;fontColor=#666666;align=left;" vertex="1" parent="taAovDgYZtb6aDD5GkYz-1">
          <mxGeometry x="130" y="60" width="250" height="26" as="geometry" />
        </mxCell>
        <mxCell id="taAovDgYZtb6aDD5GkYz-4" value="" style="whiteSpace=wrap;html=1;rounded=0;shadow=0;labelBackgroundColor=none;strokeWidth=1;fillColor=none;fontFamily=Verdana;fontSize=12;align=center;comic=1;" vertex="1" parent="taAovDgYZtb6aDD5GkYz-1">
          <mxGeometry y="110" width="790" height="50" as="geometry" />
        </mxCell>
        <mxCell id="taAovDgYZtb6aDD5GkYz-5" value="&lt;span style=&quot;color: rgba(0, 0, 0, 0); font-family: monospace; font-size: 0px;&quot;&gt;%3CmxGraphModel%3E%3Croot%3E%3CmxCell%20id%3D%220%22%2F%3E%3CmxCell%20id%3D%221%22%20parent%3D%220%22%2F%3E%3CmxCell%20id%3D%222%22%20value%3D%22%26lt%3Bspan%20style%3D%26quot%3Bcolor%3A%20rgb(0%2C%200%2C%200)%3B%20font-family%3A%20Verdana%3B%20font-size%3A%2014px%3B%20text-align%3A%20left%3B%26quot%3B%26gt%3BSobre%20mim%26lt%3B%2Fspan%26gt%3B%22%20style%3D%22shape%3Drectangle%3BstrokeColor%3Dnone%3BfillColor%3Dnone%3BlinkText%3D%3BfontSize%3D17%3BfontColor%3D%230000ff%3BfontStyle%3D4%3Bhtml%3D1%3Balign%3Dcenter%3B%22%20vertex%3D%221%22%20parent%3D%221%22%3E%3CmxGeometry%20x%3D%22-140%22%20y%3D%22-2160%22%20width%3D%22150%22%20height%3D%2230%22%20as%3D%22geometry%22%2F%3E%3C%2FmxCell%3E%3C%2Froot%3E%3C%2FmxGraphModel%3E&lt;/span&gt;" style="text;html=1;points=[];align=left;verticalAlign=top;spacingTop=-4;fontSize=14;fontFamily=Verdana" vertex="1" parent="taAovDgYZtb6aDD5GkYz-1">
          <mxGeometry x="620" y="125" width="60" height="20" as="geometry" />
        </mxCell>
        <UserObject label="&lt;span style=&quot;color: rgb(0, 0, 0); font-family: Verdana; font-size: 14px; text-align: left;&quot;&gt;Sobre mim&lt;/span&gt;" id="taAovDgYZtb6aDD5GkYz-6">
          <mxCell style="shape=rectangle;strokeColor=none;fillColor=none;linkText=;fontSize=17;fontColor=#0000ff;fontStyle=4;html=1;align=center;" vertex="1" parent="taAovDgYZtb6aDD5GkYz-1">
            <mxGeometry x="317.5" y="120" width="150" height="30" as="geometry" />
          </mxCell>
        </UserObject>
        <UserObject label="&lt;span style=&quot;color: rgb(0, 0, 0); font-family: Verdana; font-size: 14px; text-align: left;&quot;&gt;Curriculo&lt;/span&gt;" id="taAovDgYZtb6aDD5GkYz-7">
          <mxCell style="shape=rectangle;strokeColor=none;fillColor=none;linkText=;fontSize=17;fontColor=#0000ff;fontStyle=4;html=1;align=center;" vertex="1" parent="taAovDgYZtb6aDD5GkYz-1">
            <mxGeometry x="437.5" y="120" width="150" height="30" as="geometry" />
          </mxCell>
        </UserObject>
        <UserObject label="&lt;span style=&quot;color: rgb(0, 0, 0); font-family: Verdana; font-size: 14px; text-align: left;&quot;&gt;Contato&lt;/span&gt;" id="taAovDgYZtb6aDD5GkYz-8">
          <mxCell style="shape=rectangle;strokeColor=none;fillColor=none;linkText=;fontSize=17;fontColor=#0000ff;fontStyle=4;html=1;align=center;" vertex="1" parent="taAovDgYZtb6aDD5GkYz-1">
            <mxGeometry x="542.5" y="120" width="150" height="30" as="geometry" />
          </mxCell>
        </UserObject>
        <UserObject label="&lt;span style=&quot;color: rgb(0, 0, 0); font-family: Verdana; font-size: 14px; text-align: left;&quot;&gt;Home&lt;/span&gt;" id="taAovDgYZtb6aDD5GkYz-9">
          <mxCell style="shape=rectangle;strokeColor=none;fillColor=none;linkText=;fontSize=17;fontColor=#0000ff;fontStyle=4;html=1;align=center;" vertex="1" parent="taAovDgYZtb6aDD5GkYz-1">
            <mxGeometry x="192.5" y="120" width="150" height="30" as="geometry" />
          </mxCell>
        </UserObject>
        <mxCell id="taAovDgYZtb6aDD5GkYz-10" value="&lt;h2&gt;Currículo&lt;/h2&gt;" style="text;html=1;strokeColor=none;fillColor=none;spacing=5;spacingTop=-20;whiteSpace=wrap;overflow=hidden;rounded=0;fontSize=32;" vertex="1" parent="taAovDgYZtb6aDD5GkYz-1">
          <mxGeometry x="280" y="200" width="240" height="100" as="geometry" />
        </mxCell>
        <mxCell id="taAovDgYZtb6aDD5GkYz-11" value="&lt;p style=&quot;margin: 0px 0px 15px; padding: 0px; text-align: justify; background-color: rgb(255, 255, 255);&quot;&gt;&lt;font style=&quot;font-size: 18px;&quot;&gt;Lorem ipsum dolor sit amet, consectetur adipiscing elit. Donec in nulla placerat, placerat dui eu, pretium enim. Maecenas fermentum, urna et lacinia dictum, metus odio bibendum sem,&amp;nbsp;&lt;/font&gt;&lt;/p&gt;" style="text;html=1;strokeColor=none;fillColor=none;align=center;verticalAlign=middle;whiteSpace=wrap;rounded=0;fontSize=31;" vertex="1" parent="taAovDgYZtb6aDD5GkYz-1">
          <mxGeometry x="40" y="420" width="740" height="130" as="geometry" />
        </mxCell>
        <mxCell id="taAovDgYZtb6aDD5GkYz-13" value="&lt;h2 style=&quot;font-size: 20px; text-transform: uppercase; margin-top: 40px; font-family: Montserrat, sans-serif;&quot;&gt;DADOS PESSOAIS&lt;/h2&gt;&lt;div&gt;&lt;br&gt;&lt;/div&gt;" style="text;html=1;strokeColor=none;fillColor=none;align=center;verticalAlign=middle;whiteSpace=wrap;rounded=0;fontFamily=Helvetica;fontSize=18;fontColor=default;labelBackgroundColor=none;" vertex="1" parent="taAovDgYZtb6aDD5GkYz-1">
          <mxGeometry x="270" y="340" width="240" height="60" as="geometry" />
        </mxCell>
        <mxCell id="taAovDgYZtb6aDD5GkYz-17" value="&lt;h2 style=&quot;font-size: 20px; text-transform: uppercase; margin-top: 40px; font-family: Montserrat, sans-serif;&quot;&gt;Educação&lt;/h2&gt;" style="text;html=1;strokeColor=none;fillColor=none;align=center;verticalAlign=middle;whiteSpace=wrap;rounded=0;fontFamily=Helvetica;fontSize=18;fontColor=default;labelBackgroundColor=none;" vertex="1" parent="taAovDgYZtb6aDD5GkYz-1">
          <mxGeometry x="270" y="524" width="240" height="60" as="geometry" />
        </mxCell>
        <mxCell id="taAovDgYZtb6aDD5GkYz-18" value="&lt;p style=&quot;margin: 0px 0px 15px; padding: 0px; text-align: justify; background-color: rgb(255, 255, 255);&quot;&gt;&lt;font style=&quot;font-size: 18px;&quot;&gt;Lorem ipsum dolor sit amet, consectetur adipiscing elit. Donec in nulla placerat, placerat dui eu, pretium enim. Maecenas fermentum, urna et lacinia dictum, metus odio bibendum sem,&amp;nbsp;&lt;/font&gt;&lt;/p&gt;" style="text;html=1;strokeColor=none;fillColor=none;align=center;verticalAlign=middle;whiteSpace=wrap;rounded=0;fontSize=31;" vertex="1" parent="taAovDgYZtb6aDD5GkYz-1">
          <mxGeometry x="40" y="620" width="740" height="90" as="geometry" />
        </mxCell>
        <mxCell id="taAovDgYZtb6aDD5GkYz-23" value="" style="line;strokeWidth=4;html=1;perimeter=backbonePerimeter;points=[];outlineConnect=0;labelBackgroundColor=none;fontFamily=Helvetica;fontSize=18;fontColor=default;fillColor=none;" vertex="1" parent="taAovDgYZtb6aDD5GkYz-1">
          <mxGeometry x="210" y="600" width="390" height="10" as="geometry" />
        </mxCell>
        <mxCell id="taAovDgYZtb6aDD5GkYz-24" value="" style="line;strokeWidth=4;html=1;perimeter=backbonePerimeter;points=[];outlineConnect=0;labelBackgroundColor=none;fontFamily=Helvetica;fontSize=18;fontColor=default;fillColor=none;" vertex="1" parent="taAovDgYZtb6aDD5GkYz-1">
          <mxGeometry x="205" y="410" width="390" height="10" as="geometry" />
        </mxCell>
        <mxCell id="taAovDgYZtb6aDD5GkYz-27" value="&lt;h2 style=&quot;font-size: 20px; text-transform: uppercase; margin-top: 40px; font-family: Montserrat, sans-serif;&quot;&gt;Experiência&lt;/h2&gt;" style="text;html=1;strokeColor=none;fillColor=none;align=center;verticalAlign=middle;whiteSpace=wrap;rounded=0;fontFamily=Helvetica;fontSize=18;fontColor=default;labelBackgroundColor=none;" vertex="1" parent="taAovDgYZtb6aDD5GkYz-1">
          <mxGeometry x="270" y="684" width="240" height="60" as="geometry" />
        </mxCell>
        <mxCell id="taAovDgYZtb6aDD5GkYz-28" value="&lt;p style=&quot;margin: 0px 0px 15px; padding: 0px; text-align: justify; background-color: rgb(255, 255, 255);&quot;&gt;&lt;font style=&quot;font-size: 18px;&quot;&gt;Lorem ipsum dolor sit amet, consectetur adipiscing elit. Donec in nulla placerat, placerat dui eu, pretium enim. Maecenas fermentum, urna et lacinia dictum, metus odio bibendum sem,&amp;nbsp;&lt;/font&gt;&lt;/p&gt;" style="text;html=1;strokeColor=none;fillColor=none;align=center;verticalAlign=middle;whiteSpace=wrap;rounded=0;fontSize=31;" vertex="1" parent="taAovDgYZtb6aDD5GkYz-1">
          <mxGeometry x="20" y="780" width="740" height="90" as="geometry" />
        </mxCell>
        <mxCell id="taAovDgYZtb6aDD5GkYz-29" value="" style="line;strokeWidth=4;html=1;perimeter=backbonePerimeter;points=[];outlineConnect=0;labelBackgroundColor=none;fontFamily=Helvetica;fontSize=18;fontColor=default;fillColor=none;" vertex="1" parent="taAovDgYZtb6aDD5GkYz-1">
          <mxGeometry x="210" y="760" width="390" height="10" as="geometry" />
        </mxCell>
        <UserObject label="Clique aquqi para baixar em PDF o meu curriculo" id="taAovDgYZtb6aDD5GkYz-31">
          <mxCell style="text;html=1;strokeColor=none;fillColor=none;whiteSpace=wrap;align=center;verticalAlign=middle;fontColor=#0000EE;fontStyle=4;labelBackgroundColor=none;fontFamily=Helvetica;fontSize=18;" vertex="1" parent="taAovDgYZtb6aDD5GkYz-1">
            <mxGeometry x="165" y="920" width="455" height="106" as="geometry" />
          </mxCell>
        </UserObject>
      </root>
    </mxGraphModel>
  </diagram>
  <diagram id="k62JO7_QU_EYKZ-MTciL" name="Página-4">
    <mxGraphModel dx="2677" dy="3222" grid="1" gridSize="10" guides="1" tooltips="1" connect="1" arrows="1" fold="1" page="1" pageScale="1" pageWidth="827" pageHeight="1169" math="0" shadow="0">
      <root>
        <mxCell id="0" />
        <mxCell id="1" parent="0" />
        <UserObject label="" id="MwUEb5c0GyW11cFqam62-1">
          <mxCell style="strokeWidth=1;shadow=0;dashed=0;align=center;html=1;shape=mxgraph.mockup.containers.browserWindow;rSize=0;strokeColor=#666666;strokeColor2=#008cff;strokeColor3=#c4c4c4;mainText=,;recursiveResize=0;fillColor=none;" vertex="1" parent="1">
            <mxGeometry x="-808" y="-2290" width="790" height="1100" as="geometry" />
          </mxCell>
        </UserObject>
        <mxCell id="MwUEb5c0GyW11cFqam62-2" value="Page 1" style="strokeWidth=1;shadow=0;dashed=0;align=center;html=1;shape=mxgraph.mockup.containers.anchor;fontSize=17;fontColor=#666666;align=left;" vertex="1" parent="MwUEb5c0GyW11cFqam62-1">
          <mxGeometry x="60" y="12" width="110" height="26" as="geometry" />
        </mxCell>
        <mxCell id="MwUEb5c0GyW11cFqam62-3" value="https://lucio-ribeiro.github.io/trabalhoportifolio/src/contato.html" style="strokeWidth=1;shadow=0;dashed=0;align=center;html=1;shape=mxgraph.mockup.containers.anchor;rSize=0;fontSize=17;fontColor=#666666;align=left;" vertex="1" parent="MwUEb5c0GyW11cFqam62-1">
          <mxGeometry x="130" y="60" width="250" height="26" as="geometry" />
        </mxCell>
        <mxCell id="MwUEb5c0GyW11cFqam62-4" value="" style="whiteSpace=wrap;html=1;rounded=0;shadow=0;labelBackgroundColor=none;strokeWidth=1;fillColor=none;fontFamily=Verdana;fontSize=12;align=center;comic=1;" vertex="1" parent="MwUEb5c0GyW11cFqam62-1">
          <mxGeometry y="110" width="780" height="50" as="geometry" />
        </mxCell>
        <mxCell id="MwUEb5c0GyW11cFqam62-5" value="&lt;span style=&quot;color: rgba(0, 0, 0, 0); font-family: monospace; font-size: 0px;&quot;&gt;%3CmxGraphModel%3E%3Croot%3E%3CmxCell%20id%3D%220%22%2F%3E%3CmxCell%20id%3D%221%22%20parent%3D%220%22%2F%3E%3CmxCell%20id%3D%222%22%20value%3D%22%26lt%3Bspan%20style%3D%26quot%3Bcolor%3A%20rgb(0%2C%200%2C%200)%3B%20font-family%3A%20Verdana%3B%20font-size%3A%2014px%3B%20text-align%3A%20left%3B%26quot%3B%26gt%3BSobre%20mim%26lt%3B%2Fspan%26gt%3B%22%20style%3D%22shape%3Drectangle%3BstrokeColor%3Dnone%3BfillColor%3Dnone%3BlinkText%3D%3BfontSize%3D17%3BfontColor%3D%230000ff%3BfontStyle%3D4%3Bhtml%3D1%3Balign%3Dcenter%3B%22%20vertex%3D%221%22%20parent%3D%221%22%3E%3CmxGeometry%20x%3D%22-140%22%20y%3D%22-2160%22%20width%3D%22150%22%20height%3D%2230%22%20as%3D%22geometry%22%2F%3E%3C%2FmxCell%3E%3C%2Froot%3E%3C%2FmxGraphModel%3E&lt;/span&gt;" style="text;html=1;points=[];align=left;verticalAlign=top;spacingTop=-4;fontSize=14;fontFamily=Verdana" vertex="1" parent="MwUEb5c0GyW11cFqam62-1">
          <mxGeometry x="620" y="125" width="60" height="20" as="geometry" />
        </mxCell>
        <UserObject label="&lt;span style=&quot;color: rgb(0, 0, 0); font-family: Verdana; font-size: 14px; text-align: left;&quot;&gt;Sobre mim&lt;/span&gt;" id="MwUEb5c0GyW11cFqam62-6">
          <mxCell style="shape=rectangle;strokeColor=none;fillColor=none;linkText=;fontSize=17;fontColor=#0000ff;fontStyle=4;html=1;align=center;" vertex="1" parent="MwUEb5c0GyW11cFqam62-1">
            <mxGeometry x="305" y="120" width="150" height="30" as="geometry" />
          </mxCell>
        </UserObject>
        <UserObject label="&lt;span style=&quot;color: rgb(0, 0, 0); font-family: Verdana; font-size: 14px; text-align: left;&quot;&gt;Curriculo&lt;/span&gt;" id="MwUEb5c0GyW11cFqam62-7">
          <mxCell style="shape=rectangle;strokeColor=none;fillColor=none;linkText=;fontSize=17;fontColor=#0000ff;fontStyle=4;html=1;align=center;" vertex="1" parent="MwUEb5c0GyW11cFqam62-1">
            <mxGeometry x="425" y="120" width="150" height="30" as="geometry" />
          </mxCell>
        </UserObject>
        <UserObject label="&lt;span style=&quot;color: rgb(0, 0, 0); font-family: Verdana; font-size: 14px; text-align: left;&quot;&gt;Contato&lt;/span&gt;" id="MwUEb5c0GyW11cFqam62-8">
          <mxCell style="shape=rectangle;strokeColor=none;fillColor=none;linkText=;fontSize=17;fontColor=#0000ff;fontStyle=4;html=1;align=center;" vertex="1" parent="MwUEb5c0GyW11cFqam62-1">
            <mxGeometry x="530" y="120" width="150" height="30" as="geometry" />
          </mxCell>
        </UserObject>
        <UserObject label="&lt;span style=&quot;color: rgb(0, 0, 0); font-family: Verdana; font-size: 14px; text-align: left;&quot;&gt;Home&lt;/span&gt;" id="MwUEb5c0GyW11cFqam62-9">
          <mxCell style="shape=rectangle;strokeColor=none;fillColor=none;linkText=;fontSize=17;fontColor=#0000ff;fontStyle=4;html=1;align=center;" vertex="1" parent="MwUEb5c0GyW11cFqam62-1">
            <mxGeometry x="175" y="120" width="160" height="30" as="geometry" />
          </mxCell>
        </UserObject>
        <mxCell id="MwUEb5c0GyW11cFqam62-10" value="&lt;h2&gt;Contato&lt;/h2&gt;" style="text;html=1;strokeColor=none;fillColor=none;spacing=5;spacingTop=-20;whiteSpace=wrap;overflow=hidden;rounded=0;fontSize=32;" vertex="1" parent="MwUEb5c0GyW11cFqam62-1">
          <mxGeometry x="305" y="207" width="240" height="100" as="geometry" />
        </mxCell>
        <mxCell id="MwUEb5c0GyW11cFqam62-11" value="&lt;p style=&quot;margin: 0px 0px 15px; padding: 0px; text-align: justify; background-color: rgb(255, 255, 255);&quot;&gt;&lt;font style=&quot;font-size: 18px;&quot;&gt;Lorem ipsum dolor sit amet, consectetur adipiscing elit. Donec in nulla placerat, placerat dui eu, pretium enim. Maecenas fermentum, urna et lacinia dictum, metus odio bibendum sem,&amp;nbsp;&lt;/font&gt;&lt;/p&gt;" style="text;html=1;strokeColor=none;fillColor=none;align=center;verticalAlign=middle;whiteSpace=wrap;rounded=0;fontSize=31;" vertex="1" parent="MwUEb5c0GyW11cFqam62-1">
          <mxGeometry x="25" y="430" width="740" height="130" as="geometry" />
        </mxCell>
        <mxCell id="MwUEb5c0GyW11cFqam62-12" value="&lt;h2 style=&quot;font-size: 20px; text-transform: uppercase; margin-top: 40px; font-family: Montserrat, sans-serif;&quot;&gt;DADOS PESSOAIS&lt;/h2&gt;&lt;div&gt;&lt;br&gt;&lt;/div&gt;" style="text;html=1;strokeColor=none;fillColor=none;align=center;verticalAlign=middle;whiteSpace=wrap;rounded=0;fontFamily=Helvetica;fontSize=18;fontColor=default;labelBackgroundColor=none;" vertex="1" parent="MwUEb5c0GyW11cFqam62-1">
          <mxGeometry x="275" y="350" width="240" height="60" as="geometry" />
        </mxCell>
        <mxCell id="MwUEb5c0GyW11cFqam62-13" value="&lt;h2 style=&quot;font-size: 20px; text-transform: uppercase; margin-top: 40px; font-family: Montserrat, sans-serif;&quot;&gt;Educação&lt;/h2&gt;" style="text;html=1;strokeColor=none;fillColor=none;align=center;verticalAlign=middle;whiteSpace=wrap;rounded=0;fontFamily=Helvetica;fontSize=18;fontColor=default;labelBackgroundColor=none;" vertex="1" parent="MwUEb5c0GyW11cFqam62-1">
          <mxGeometry x="275" y="534" width="240" height="60" as="geometry" />
        </mxCell>
        <mxCell id="MwUEb5c0GyW11cFqam62-14" value="&lt;p style=&quot;margin: 0px 0px 15px; padding: 0px; text-align: justify; background-color: rgb(255, 255, 255);&quot;&gt;&lt;font style=&quot;font-size: 18px;&quot;&gt;Lorem ipsum dolor sit amet, consectetur adipiscing elit. Donec in nulla placerat, placerat dui eu, pretium enim. Maecenas fermentum, urna et lacinia dictum, metus odio bibendum sem,&amp;nbsp;&lt;/font&gt;&lt;/p&gt;" style="text;html=1;strokeColor=none;fillColor=none;align=center;verticalAlign=middle;whiteSpace=wrap;rounded=0;fontSize=31;" vertex="1" parent="MwUEb5c0GyW11cFqam62-1">
          <mxGeometry x="25" y="630" width="740" height="90" as="geometry" />
        </mxCell>
        <mxCell id="MwUEb5c0GyW11cFqam62-15" value="" style="line;strokeWidth=4;html=1;perimeter=backbonePerimeter;points=[];outlineConnect=0;labelBackgroundColor=none;fontFamily=Helvetica;fontSize=18;fontColor=default;fillColor=none;" vertex="1" parent="MwUEb5c0GyW11cFqam62-1">
          <mxGeometry x="190" y="610" width="390" height="10" as="geometry" />
        </mxCell>
        <mxCell id="MwUEb5c0GyW11cFqam62-16" value="" style="line;strokeWidth=4;html=1;perimeter=backbonePerimeter;points=[];outlineConnect=0;labelBackgroundColor=none;fontFamily=Helvetica;fontSize=18;fontColor=default;fillColor=none;" vertex="1" parent="MwUEb5c0GyW11cFqam62-1">
          <mxGeometry x="200" y="420" width="390" height="10" as="geometry" />
        </mxCell>
        <mxCell id="MwUEb5c0GyW11cFqam62-17" value="&lt;h2 style=&quot;font-size: 20px; text-transform: uppercase; margin-top: 40px; font-family: Montserrat, sans-serif;&quot;&gt;Experiência&lt;/h2&gt;" style="text;html=1;strokeColor=none;fillColor=none;align=center;verticalAlign=middle;whiteSpace=wrap;rounded=0;fontFamily=Helvetica;fontSize=18;fontColor=default;labelBackgroundColor=none;" vertex="1" parent="MwUEb5c0GyW11cFqam62-1">
          <mxGeometry x="245" y="694" width="240" height="60" as="geometry" />
        </mxCell>
        <mxCell id="MwUEb5c0GyW11cFqam62-18" value="&lt;p style=&quot;margin: 0px 0px 15px; padding: 0px; text-align: justify; background-color: rgb(255, 255, 255);&quot;&gt;&lt;font style=&quot;font-size: 18px;&quot;&gt;Lorem ipsum dolor sit amet, consectetur adipiscing elit. Donec in nulla placerat, placerat dui eu, pretium enim. Maecenas fermentum, urna et lacinia dictum, metus odio bibendum sem,&amp;nbsp;&lt;/font&gt;&lt;/p&gt;" style="text;html=1;strokeColor=none;fillColor=none;align=center;verticalAlign=middle;whiteSpace=wrap;rounded=0;fontSize=31;" vertex="1" parent="MwUEb5c0GyW11cFqam62-1">
          <mxGeometry x="25" y="790" width="740" height="90" as="geometry" />
        </mxCell>
        <mxCell id="MwUEb5c0GyW11cFqam62-19" value="" style="line;strokeWidth=4;html=1;perimeter=backbonePerimeter;points=[];outlineConnect=0;labelBackgroundColor=none;fontFamily=Helvetica;fontSize=18;fontColor=default;fillColor=none;" vertex="1" parent="MwUEb5c0GyW11cFqam62-1">
          <mxGeometry x="190" y="770" width="390" height="10" as="geometry" />
        </mxCell>
        <UserObject label="Clique aquqi para baixar em PDF o meu curriculo" id="MwUEb5c0GyW11cFqam62-20">
          <mxCell style="text;html=1;strokeColor=none;fillColor=none;whiteSpace=wrap;align=center;verticalAlign=middle;fontColor=#0000EE;fontStyle=4;labelBackgroundColor=none;fontFamily=Helvetica;fontSize=18;" vertex="1" parent="MwUEb5c0GyW11cFqam62-1">
            <mxGeometry x="157.5" y="934" width="455" height="106" as="geometry" />
          </mxCell>
        </UserObject>
      </root>
    </mxGraphModel>
  </diagram>
</mxfile>
